<svg width="21" height="20" viewBox="0 0 21 20" fill="none" xmlns="http://www.w3.org/2000/svg">
<path d="M5.39408 18.0833H15.6059C15.7958 18.0781 15.9801 18.1474 16.1196 18.2762C16.2591 18.4051 16.3426 18.5835 16.3523 18.7731C16.3621 18.9628 16.2973 19.1487 16.1718 19.2913C16.0462 19.4338 15.87 19.5216 15.6806 19.5358L15.6059 19.5393H5.39408C5.20424 19.5445 5.01989 19.4753 4.88041 19.3464C4.74094 19.2175 4.6574 19.0392 4.64765 18.8495C4.6379 18.6599 4.70271 18.4739 4.82824 18.3314C4.95376 18.1889 5.13004 18.1011 5.31942 18.0868L5.39408 18.0833ZM1.89408 15.1667H19.1053C19.2925 15.1658 19.4729 15.237 19.6089 15.3656C19.745 15.4943 19.8262 15.6703 19.8358 15.8573C19.8454 16.0442 19.7827 16.2277 19.6605 16.3696C19.5384 16.5115 19.3663 16.6009 19.18 16.6192L19.1053 16.6227H1.89467C1.70747 16.6236 1.52712 16.5523 1.39108 16.4237C1.25505 16.2951 1.17379 16.119 1.16418 15.932C1.15457 15.7451 1.21735 15.5616 1.33947 15.4197C1.4616 15.2779 1.63369 15.1885 1.82 15.1702L1.89467 15.1667H1.89408ZM10.5 0C14.1966 0 16.2937 2.44708 16.5988 5.40167H16.6921C19.0709 5.40167 20.9994 7.3255 20.9994 9.69792C20.9994 12.0709 19.0709 13.9942 16.6921 13.9942H4.30792C1.9285 13.9942 0 12.0709 0 9.69792C0 7.3255 1.9285 5.40167 4.30733 5.40167H4.40067C4.7075 2.42725 6.80283 0 10.5 0ZM10.5 1.45542C8.01442 1.45542 5.84792 3.46675 5.84792 6.24458C5.84792 6.685 5.46525 7.03092 5.02658 7.03092H4.19825C2.68508 7.03092 1.45833 8.2635 1.45833 9.78425C1.45833 11.3056 2.68508 12.5388 4.19825 12.5388H16.8018C18.3149 12.5388 19.5417 11.3056 19.5417 9.78483C19.5417 8.2635 18.3149 7.03033 16.8018 7.03033H15.9734C15.5347 7.03033 15.1521 6.685 15.1521 6.24517C15.1521 3.43117 12.9856 1.456 10.5 1.456V1.45542Z" fill="white"/>
</svg>
