<svg width="22" height="19" viewBox="0 0 22 19" fill="none" xmlns="http://www.w3.org/2000/svg">
<path d="M11 0.667831C14.696 0.667831 16.7937 3.11433 17.0982 6.0695H17.1915C17.7566 6.06858 18.3163 6.17901 18.8387 6.39447C19.3611 6.60994 19.8359 6.92622 20.236 7.32525C20.6361 7.72428 20.9537 8.19823 21.1706 8.72003C21.3874 9.24183 21.4994 9.80125 21.5 10.3663C21.4992 10.9312 21.3872 11.4904 21.1703 12.012C20.9535 12.5336 20.636 13.0074 20.236 13.4062C19.836 13.8051 19.3614 14.1213 18.8392 14.3368C18.317 14.5523 17.7575 14.6628 17.1927 14.662H16.5137L14.668 17.7362C14.5575 17.929 14.3777 18.0726 14.1651 18.1377C13.9526 18.2027 13.7232 18.1845 13.5237 18.0867C13.3241 17.9888 13.1692 17.8186 13.0905 17.6108C13.0118 17.4029 13.0152 17.1728 13.1 16.9673L13.1525 16.8612L14.493 14.662H12.001L10.1553 17.7362C10.0448 17.929 9.86499 18.0726 9.65245 18.1377C9.43992 18.2027 9.21057 18.1845 9.01099 18.0867C8.81141 17.9888 8.65655 17.8186 8.57786 17.6108C8.49918 17.4029 8.50257 17.1728 8.58733 16.9673L8.63983 16.8612L9.97917 14.662H7.48483L5.6415 17.7362C5.53221 17.9315 5.35225 18.0775 5.13861 18.1442C4.92497 18.2108 4.6939 18.1931 4.49293 18.0946C4.29195 17.9962 4.13635 17.8244 4.05811 17.6148C3.97988 17.4051 3.98497 17.1734 4.07233 16.9673L4.12483 16.8612L5.46417 14.662H4.8085C4.24352 14.6629 3.68389 14.5525 3.16158 14.3371C2.63927 14.1217 2.16451 13.8056 1.76442 13.4067C1.36432 13.0078 1.04673 12.5339 0.829775 12.0123C0.612824 11.4906 0.500765 10.9313 0.5 10.3663C0.500459 9.80116 0.612291 9.24161 0.829105 8.71968C1.04592 8.19774 1.36346 7.72365 1.76359 7.3245C2.16372 6.92535 2.63858 6.60896 3.16105 6.39342C3.68351 6.17788 4.24332 6.06741 4.8085 6.06833H4.90183C5.2075 3.09333 7.30283 0.667831 11 0.667831ZM11 2.4155C8.58383 2.4155 6.47683 4.32066 6.47683 6.95266C6.47683 7.36916 6.10467 7.697 5.67883 7.697H4.87383C3.40267 7.697 2.20917 8.86483 2.20917 10.3057C2.20917 11.7465 3.40267 12.9155 4.87383 12.9155H17.125C18.5962 12.9155 19.7897 11.7465 19.7897 10.3057C19.7897 8.86483 18.5962 7.697 17.125 7.697H16.32C15.8942 7.697 15.522 7.37033 15.522 6.95266C15.522 4.28683 13.415 2.41433 10.9988 2.41433L11 2.4155Z" fill="white"/>
</svg>
