
<svg width="22" height="18" viewBox="0 0 22 18" fill="none" xmlns="http://www.w3.org/2000/svg">
<path d="M8.29166 16.2916C8.50715 16.2916 8.71381 16.3772 8.86618 16.5296C9.01855 16.682 9.10416 16.8887 9.10416 17.1041C9.10416 17.3196 9.01855 17.5263 8.86618 17.6787C8.71381 17.831 8.50715 17.9166 8.29166 17.9166C8.07617 17.9166 7.86951 17.831 7.71713 17.6787C7.56476 17.5263 7.47916 17.3196 7.47916 17.1041C7.47916 16.8887 7.56476 16.682 7.71713 16.5296C7.86951 16.3772 8.07617 16.2916 8.29166 16.2916ZM13.1667 16.2916C13.3821 16.2916 13.5888 16.3772 13.7412 16.5296C13.8936 16.682 13.9792 16.8887 13.9792 17.1041C13.9792 17.3196 13.8936 17.5263 13.7412 17.6787C13.5888 17.831 13.3821 17.9166 13.1667 17.9166C12.9512 17.9166 12.7445 17.831 12.5921 17.6787C12.4398 17.5263 12.3542 17.3196 12.3542 17.1041C12.3542 16.8887 12.4398 16.682 12.5921 16.5296C12.7445 16.3772 12.9512 16.2916 13.1667 16.2916ZM5.85416 15.2083C6.06965 15.2083 6.27631 15.2939 6.42868 15.4463C6.58105 15.5987 6.66666 15.8053 6.66666 16.0208C6.66666 16.2363 6.58105 16.443 6.42868 16.5953C6.27631 16.7477 6.06965 16.8333 5.85416 16.8333C5.63867 16.8333 5.43201 16.7477 5.27963 16.5953C5.12726 16.443 5.04166 16.2363 5.04166 16.0208C5.04166 15.8053 5.12726 15.5987 5.27963 15.4463C5.43201 15.2939 5.63867 15.2083 5.85416 15.2083ZM10.7292 15.2083C10.9446 15.2083 11.1513 15.2939 11.3037 15.4463C11.4561 15.5987 11.5417 15.8053 11.5417 16.0208C11.5417 16.2363 11.4561 16.443 11.3037 16.5953C11.1513 16.7477 10.9446 16.8333 10.7292 16.8333C10.5137 16.8333 10.307 16.7477 10.1546 16.5953C10.0023 16.443 9.91666 16.2363 9.91666 16.0208C9.91666 15.8053 10.0023 15.5987 10.1546 15.4463C10.307 15.2939 10.5137 15.2083 10.7292 15.2083ZM15.6042 15.2083C15.8196 15.2083 16.0263 15.2939 16.1787 15.4463C16.3311 15.5987 16.4167 15.8053 16.4167 16.0208C16.4167 16.2363 16.3311 16.443 16.1787 16.5953C16.0263 16.7477 15.8196 16.8333 15.6042 16.8333C15.3887 16.8333 15.182 16.7477 15.0296 16.5953C14.8773 16.443 14.7917 16.2363 14.7917 16.0208C14.7917 15.8053 14.8773 15.5987 15.0296 15.4463C15.182 15.2939 15.3887 15.2083 15.6042 15.2083Z" fill="FFFFFF"/>
<path d="M4.79167 13.4167C4.16242 13.4167 3.53933 13.2927 2.95798 13.0519C2.37662 12.8111 1.84839 12.4582 1.40345 12.0132C0.504835 11.1146 0 9.89583 0 8.625C0 7.35417 0.504835 6.13539 1.40345 5.23678C2.30206 4.33817 3.52084 3.83333 4.79167 3.83333C5.75 1.58125 7.95417 0 10.5417 0C13.8288 0 16.5217 2.54917 16.7708 5.77875L17.25 5.75C18.2667 5.75 19.2417 6.15387 19.9606 6.87276C20.6795 7.59165 21.0833 8.56667 21.0833 9.58333C21.0833 10.6 20.6795 11.575 19.9606 12.2939C19.2417 13.0128 18.2667 13.4167 17.25 13.4167H4.79167ZM17.25 7.66667H15.3333V6.70833C15.3333 5.4375 14.8285 4.21873 13.9299 3.32011C13.0313 2.4215 11.8125 1.91667 10.5417 1.91667C8.14583 1.91667 6.18125 3.66083 5.8075 5.93208C5.49125 5.81708 5.14625 5.75 4.79167 5.75C4.02917 5.75 3.2979 6.0529 2.75873 6.59207C2.21957 7.13124 1.91667 7.8625 1.91667 8.625C1.91667 9.3875 2.21957 10.1188 2.75873 10.6579C3.2979 11.1971 4.02917 11.5 4.79167 11.5H17.25C17.7583 11.5 18.2458 11.2981 18.6053 10.9386C18.9647 10.5792 19.1667 10.0917 19.1667 9.58333C19.1667 9.075 18.9647 8.58749 18.6053 8.22805C18.2458 7.8686 17.7583 7.66667 17.25 7.66667Z" fill="FFFFFF"/>
</svg>
