<svg width="21" height="16" viewBox="0 0 21 16" fill="none" xmlns="http://www.w3.org/2000/svg">
<path d="M11.0026 3.009C14.1706 3.009 15.9686 5.106 16.2296 7.639H16.3096C16.7939 7.63834 17.2736 7.73309 17.7212 7.91784C18.1688 8.10258 18.5757 8.3737 18.9186 8.71571C19.2614 9.05773 19.5335 9.46393 19.7194 9.91112C19.9052 10.3583 20.0011 10.8377 20.0016 11.322C20.001 11.8062 19.905 12.2855 19.7191 12.7326C19.5332 13.1797 19.261 13.5857 18.9182 13.9276C18.5754 14.2695 18.1685 14.5406 17.721 14.7253C17.2734 14.9099 16.7938 15.0047 16.3096 15.004H5.69464C5.21045 15.0047 4.73088 14.9099 4.2833 14.7253C3.83572 14.5406 3.4289 14.2695 3.08607 13.9276C2.74323 13.5857 2.4711 13.1797 2.2852 12.7326C2.09931 12.2855 2.00329 11.8062 2.00264 11.322C2.00316 10.8377 2.09908 10.3583 2.28492 9.91112C2.47075 9.46393 2.74287 9.05773 3.08571 8.71571C3.42856 8.3737 3.83543 8.10258 4.28307 7.91784C4.73071 7.73309 5.21037 7.63834 5.69464 7.639H5.77464C6.03764 5.089 7.83464 3.009 11.0026 3.009ZM11.0026 4.506C8.93064 4.506 7.12564 6.14 7.12564 8.396C7.12564 8.753 6.80664 9.034 6.44164 9.034H5.75164C4.48964 9.034 3.46764 10.034 3.46764 11.27C3.46764 12.505 4.48964 13.506 5.75064 13.506H16.2536C17.5146 13.506 18.5366 12.506 18.5366 11.27C18.5366 10.035 17.5146 9.034 16.2536 9.034H15.5636C15.1976 9.034 14.8786 8.754 14.8786 8.396C14.8786 6.111 13.0736 4.506 11.0026 4.506ZM8.00064 0C9.61764 0 11.0506 0.815 11.9006 2.062C11.6026 2.02637 11.3028 2.00867 11.0026 2.009C10.6076 2.009 10.2276 2.038 9.86364 2.094C9.42106 1.78031 8.9064 1.58353 8.36744 1.52191C7.82848 1.46029 7.28268 1.53583 6.78072 1.74152C6.27875 1.94721 5.83689 2.27639 5.49615 2.69849C5.15541 3.1206 4.92683 3.62195 4.83164 4.156L4.75864 4.57C4.71794 4.80168 4.59688 5.0116 4.41672 5.16286C4.23657 5.31411 4.00886 5.39702 3.77364 5.397H3.28364C2.93128 5.39663 2.58672 5.50073 2.29351 5.69613C2.0003 5.89154 1.7716 6.16949 1.63632 6.49484C1.50105 6.8202 1.46526 7.17836 1.53348 7.52404C1.60171 7.86973 1.77089 8.18744 2.01964 8.437C1.70464 8.837 1.45464 9.292 1.28464 9.784C0.753004 9.37626 0.358898 8.81557 0.155264 8.17728C-0.0483706 7.53899 -0.0517768 6.85366 0.145503 6.21337C0.342782 5.57309 0.731296 5.00851 1.25885 4.59551C1.7864 4.1825 2.42772 3.94084 3.09664 3.903L3.35364 3.897C3.547 2.80501 4.11869 1.81598 4.96842 1.10339C5.81815 0.390802 6.89166 0.000163349 8.00064 0Z" fill="#FFFFFF"/>
</svg>
