<svg width="22" height="21" viewBox="0 0 22 21" fill="none" xmlns="http://www.w3.org/2000/svg">
<path d="M13.5 1.38286L12.5 4.38286L11.5 1.38286C11.4478 1.22467 11.4339 1.05636 11.4594 0.891757C11.4849 0.72715 11.5491 0.570942 11.6467 0.435965C11.7443 0.300988 11.8726 0.191092 12.0209 0.115304C12.1692 0.0395167 12.3334 0 12.5 0C12.6666 0 12.8308 0.0395167 12.9791 0.115304C13.1274 0.191092 13.2557 0.300988 13.3533 0.435965C13.4509 0.570942 13.5151 0.72715 13.5406 0.891757C13.5661 1.05636 13.5522 1.22467 13.5 1.38286ZM18.864 4.43286L16.035 5.84786L17.45 3.01886C17.581 2.77911 17.7998 2.59951 18.0605 2.51784C18.3212 2.43616 18.6034 2.45879 18.8477 2.58096C19.092 2.70313 19.2795 2.91531 19.3705 3.17287C19.4616 3.43042 19.4492 3.71325 19.336 3.96186C19.2338 4.1658 19.0682 4.33108 18.864 4.43286ZM20.5 10.3829L17.5 9.38286L20.5 8.38286C20.6584 8.3301 20.8271 8.31573 20.9922 8.34095C21.1573 8.36616 21.314 8.43024 21.4494 8.52789C21.5849 8.62555 21.6952 8.75399 21.7713 8.90264C21.8474 9.05128 21.887 9.21588 21.887 9.38286C21.887 9.54985 21.8474 9.71444 21.7713 9.86309C21.6952 10.0117 21.5849 10.1402 21.4494 10.2378C21.314 10.3355 21.1573 10.3996 20.9922 10.4248C20.8271 10.45 20.6584 10.4356 20.5 10.3829ZM7.55 3.01886L8.965 5.84786L6.136 4.43286C5.98602 4.35844 5.8559 4.24938 5.75641 4.11471C5.65692 3.98004 5.59091 3.82362 5.56384 3.65839C5.53677 3.49315 5.54942 3.32385 5.60073 3.16447C5.65205 3.00509 5.74057 2.86022 5.85896 2.74182C5.97736 2.62343 6.12223 2.53491 6.28161 2.4836C6.44099 2.43228 6.61029 2.41963 6.77552 2.4467C6.94076 2.47377 7.09717 2.53978 7.23184 2.63927C7.36652 2.73876 7.47557 2.86888 7.55 3.01886ZM16.776 10.7249C16.915 10.3009 17 9.85386 17 9.38286C17 6.90186 14.981 4.88286 12.5 4.88286C11.16 4.88286 9.963 5.47686 9.143 6.41086L9 6.38286C8.15531 6.38342 7.32033 6.56293 6.55004 6.90955C5.77975 7.25617 5.09163 7.76205 4.531 8.39386C4.3447 8.32508 4.14275 8.31032 3.94843 8.35131C3.75411 8.39229 3.57532 8.48734 3.43266 8.6255C3.29001 8.76366 3.18929 8.93932 3.14211 9.13223C3.09493 9.32514 3.10321 9.52745 3.166 9.71586C3.223 9.88286 3.324 10.0149 3.443 10.1269C3.1509 10.8432 3.00046 11.6093 3 12.3829L3.002 12.5089C2.14343 12.7313 1.38293 13.2323 0.839665 13.9334C0.296404 14.6345 0.00108928 15.4959 0 16.3829C0 18.5889 1.795 20.3829 4 20.3829H15C17.757 20.3829 20 18.1399 20 15.3829C20 13.2539 18.656 11.4439 16.776 10.7249ZM12.5 6.88286C13.879 6.88286 15 8.00386 15 9.38286C15 9.74886 14.904 10.0889 14.762 10.4019C14.408 10.4229 14.042 10.4759 13.644 10.5899C13.3868 9.92112 12.9888 9.31555 12.4768 8.8143C11.9649 8.31305 11.351 7.92785 10.677 7.68486C10.9091 7.43269 11.1909 7.23126 11.5046 7.09324C11.8184 6.95522 12.1573 6.8836 12.5 6.88286ZM15 18.3829H4C2.896 18.3829 2 17.4859 2 16.3829C2 15.2799 2.896 14.3829 3.908 14.3769L5.33 14.3929L5.082 13.1909C4.96299 12.6093 4.97472 12.0086 5.11636 11.4322C5.258 10.8558 5.526 10.318 5.90097 9.85786C6.27594 9.39772 6.74851 9.02667 7.28448 8.77157C7.82045 8.51648 8.40642 8.3837 9 8.38286L9.069 8.36886C9.98777 8.39085 10.8711 8.72762 11.5714 9.32283C12.2716 9.91805 12.7463 10.7356 12.916 11.6389L12.954 11.8249C13.0132 12.03 13.1375 12.2104 13.3081 12.3389C13.4787 12.4673 13.6864 12.5368 13.9 12.5369L14.189 12.5139C14.501 12.4239 14.758 12.3829 15 12.3829C16.654 12.3829 18 13.7289 18 15.3829C18 17.0369 16.654 18.3829 15 18.3829Z" fill="black"/>
</svg>
