<svg width="21" height="20" viewBox="0 0 21 20" fill="none" xmlns="http://www.w3.org/2000/svg">
<path d="M11.0024 4.01002C14.1714 4.01002 15.9684 6.10702 16.2304 8.64002H16.3104C16.7946 8.63936 17.2741 8.73408 17.7217 8.91876C18.1693 9.10344 18.5761 9.37447 18.9189 9.71638C19.2618 10.0583 19.5339 10.4644 19.7198 10.9114C19.9057 11.3585 20.0017 11.8378 20.0024 12.322C20.0019 12.8063 19.9059 13.2857 19.7201 13.7329C19.5343 14.1801 19.2621 14.5863 18.9193 14.9283C18.5764 15.2703 18.1696 15.5414 17.7219 15.7262C17.2743 15.9109 16.7946 16.0057 16.3104 16.005L15.6914 16.003L14.1414 18.628C14.0473 18.7944 13.8932 18.9186 13.7106 18.9752C13.528 19.0318 13.3307 19.0165 13.159 18.9325C12.9872 18.8485 12.8541 18.7021 12.7867 18.5232C12.7193 18.3443 12.7228 18.1464 12.7964 17.97L12.8414 17.878L13.9594 16.003H11.8234L10.2724 18.628C10.1773 18.7925 10.0233 18.9147 9.84161 18.97C9.65989 19.0254 9.46394 19.0097 9.29333 18.9262C9.12272 18.8426 8.99016 18.6975 8.92242 18.52C8.85468 18.3425 8.85681 18.146 8.92838 17.97L8.97337 17.878L10.0914 16.003H7.95537L6.40438 18.628C6.30928 18.7925 6.15533 18.9147 5.97361 18.97C5.79189 19.0254 5.59594 19.0097 5.42533 18.9262C5.25472 18.8426 5.12216 18.6975 5.05442 18.52C4.98668 18.3425 4.98881 18.146 5.06037 17.97L5.10537 17.878L6.22237 16.003L5.69537 16.005C5.21119 16.0057 4.73162 15.911 4.28404 15.7263C3.83646 15.5416 3.42964 15.2706 3.08681 14.9287C2.74397 14.5868 2.47184 14.1807 2.28594 13.7336C2.10005 13.2865 2.00403 12.8072 2.00337 12.323C2.0039 11.8388 2.09982 11.3593 2.28566 10.9121C2.47149 10.4649 2.74361 10.0587 3.08645 9.71673C3.4293 9.37472 3.83617 9.1036 4.28381 8.91886C4.73145 8.73411 5.21111 8.63936 5.69537 8.64002H5.77537C6.03837 6.09002 7.83437 4.01002 11.0024 4.01002ZM11.0024 5.50702C8.93137 5.50702 7.12638 7.14102 7.12638 9.39702C7.12638 9.75402 6.80637 10.035 6.44137 10.035H5.75137C4.49037 10.035 3.46837 11.035 3.46837 12.271C3.46837 13.506 4.49037 14.507 5.75137 14.507H16.2544C17.5144 14.507 18.5374 13.507 18.5374 12.271C18.5374 11.036 17.5154 10.035 16.2544 10.035H15.5644C15.1984 10.035 14.8794 9.75502 14.8794 9.39702C14.8794 7.11202 13.0744 5.50702 11.0024 5.50702ZM2.36837 8.16502C2.43783 8.33261 2.44418 8.51969 2.38627 8.69161C2.32835 8.86352 2.21008 9.00862 2.05337 9.10002L1.96237 9.14502L1.03637 9.52902C0.860864 9.60153 0.664382 9.60476 0.486581 9.53806C0.30878 9.47136 0.1629 9.3397 0.0783804 9.16965C-0.00613876 8.9996 -0.0230035 8.80381 0.0311897 8.62181C0.085383 8.43981 0.206599 8.28514 0.370375 8.18902L0.462375 8.14302L1.38837 7.75902C1.47938 7.72132 1.57692 7.70192 1.67542 7.70192C1.77393 7.70192 1.87147 7.72132 1.96247 7.75902C2.05348 7.79673 2.13616 7.85199 2.20581 7.92165C2.27545 7.99131 2.33069 8.07401 2.36837 8.16502ZM8.85537 3.33202L8.68337 3.39002C8.16328 3.57231 7.67171 3.82752 7.22337 4.14802C6.7419 3.99162 6.22372 3.98873 5.74053 4.13973C5.25734 4.29074 4.83302 4.58818 4.52628 4.99091C4.21954 5.39363 4.04554 5.88174 4.02836 6.38768C4.01118 6.89363 4.15166 7.39241 4.43037 7.81502C3.94298 7.95187 3.48146 8.1681 3.06437 8.45502C2.60604 7.66725 2.43484 6.745 2.57991 5.84521C2.72497 4.94543 3.17733 4.12371 3.86002 3.51989C4.5427 2.91608 5.41352 2.56747 6.32429 2.5334C7.23505 2.49933 8.12948 2.7819 8.85537 3.33302V3.33202ZM0.941375 3.36302L1.04737 3.39802L1.97337 3.78202C2.1475 3.85501 2.28769 3.99099 2.36595 4.16281C2.44422 4.33462 2.4548 4.52964 2.39559 4.70892C2.33638 4.8882 2.21173 5.03855 2.04652 5.12995C1.88132 5.22136 1.68772 5.24709 1.50437 5.20202L1.40037 5.16802L0.474375 4.78402C0.300712 4.71081 0.160975 4.57491 0.0829683 4.40335C0.00496185 4.23179 -0.00559593 4.03714 0.0533958 3.85815C0.112388 3.67916 0.236604 3.52894 0.40133 3.43738C0.566056 3.34581 0.759215 3.31962 0.942375 3.36402L0.941375 3.36302ZM4.75637 0.377018L4.80237 0.468018L5.18537 1.39402C5.25788 1.56953 5.26112 1.76601 5.19442 1.94381C5.12772 2.12161 4.99606 2.26749 4.82601 2.35201C4.65595 2.43653 4.46017 2.4534 4.27817 2.3992C4.09616 2.34501 3.9415 2.22379 3.84537 2.06002L3.80037 1.96802L3.41637 1.04202C3.3449 0.866663 3.34241 0.670761 3.40939 0.493642C3.47637 0.316522 3.60787 0.171296 3.7775 0.0871174C3.94712 0.00293884 4.14231 -0.0139606 4.32387 0.0398116C4.50544 0.0935838 4.65995 0.214047 4.75637 0.377018ZM9.11037 0.0580184C9.2764 0.126929 9.41216 0.253181 9.49292 0.413782C9.57368 0.574382 9.59407 0.758647 9.55037 0.933018L9.51637 1.03802L9.13237 1.96402C9.05917 2.13768 8.92326 2.27742 8.7517 2.35542C8.58014 2.43343 8.3855 2.44399 8.20651 2.385C8.02752 2.32601 7.87729 2.20179 7.78573 2.03706C7.69417 1.87234 7.66798 1.67918 7.71237 1.49602L7.74638 1.39002L8.13037 0.464018C8.16806 0.373006 8.2233 0.290307 8.29294 0.220646C8.36259 0.150985 8.44527 0.0957254 8.53628 0.0580237C8.62728 0.020322 8.72482 0.000916428 8.82333 0.000915527C8.92183 0.000914627 9.01937 0.0203184 9.11037 0.0580184Z" fill="black"/>
</svg>
