<svg width="21" height="24" viewBox="0 0 21 24" fill="none" xmlns="http://www.w3.org/2000/svg">
<path d="M17.94 14.18C17.5994 14.1795 17.2613 14.237 16.94 14.35V14.18C16.94 12.37 16.13 10.74 14.86 9.64C15.29 7.21 14.04 4.68 11.69 3.65C8.91 2.42 5.66 3.68 4.44 6.43C3.54 8.42 3.94 10.63 5.21 12.18H4.94C3.87913 12.18 2.86172 12.6014 2.11157 13.3516C1.36143 14.1017 0.94 15.1191 0.94 16.18C0.94 17.2409 1.36143 18.2583 2.11157 19.0084C2.86172 19.7586 3.87913 20.18 4.94 20.18H5.94C5.94 20.18 6.94 20.18 6.94 19.18C6.94 18.18 5.94 18.18 5.94 18.18H4.94C4.40957 18.18 3.90086 17.9693 3.52579 17.5942C3.15071 17.2191 2.94 16.7104 2.94 16.18C2.94 15.6496 3.15071 15.1409 3.52579 14.7658C3.90086 14.3907 4.40957 14.18 4.94 14.18H6.94C6.94 13.1191 7.36143 12.1017 8.11157 11.3516C8.86172 10.6014 9.87913 10.18 10.94 10.18C12.0009 10.18 13.0183 10.6014 13.7684 11.3516C14.5186 12.1017 14.94 13.1191 14.94 14.18V16.18H17.94C18.2052 16.18 18.4596 16.2854 18.6471 16.4729C18.8346 16.6604 18.94 16.9148 18.94 17.18C18.94 17.4452 18.8346 17.6996 18.6471 17.8871C18.4596 18.0746 18.2052 18.18 17.94 18.18H15.94C15.94 18.18 14.94 18.18 14.94 19.18C14.94 20.18 15.94 20.18 15.94 20.18H17.94C18.7357 20.18 19.4987 19.8639 20.0613 19.3013C20.6239 18.7387 20.94 17.9756 20.94 17.18C20.94 16.3844 20.6239 15.6213 20.0613 15.0587C19.4987 14.4961 18.7357 14.18 17.94 14.18ZM10.94 8.18C9.1 8.18 7.44 9.01 6.35 10.31C5.87 9.4 5.79 8.27 6.25 7.25C6.43593 6.82943 6.70321 6.44979 7.03646 6.13293C7.3697 5.81607 7.76232 5.56825 8.19172 5.40374C8.62113 5.23923 9.07883 5.16127 9.53848 5.17436C9.99813 5.18745 10.4507 5.29132 10.87 5.48C12.12 6.04 12.88 7.24 12.94 8.52C12.32 8.3 11.64 8.18 10.94 8.18ZM12.49 1.81C11.94 1.58 11.39 1.41 10.82 1.3L13.31 0L14.21 2.89C13.7 2.47 13.13 2.11 12.49 1.81ZM5.03 2.62C4.54 2.97 4.11 3.37 3.74 3.81L3.85 1L6.81 1.68C6.19 1.89 5.59 2.21 5.03 2.62ZM16.94 7.89C16.85 7.3 16.72 6.73 16.53 6.18L18.91 7.68L16.86 9.91C16.97 9.26 16.99 8.58 16.94 7.89ZM1.98 9.48C2.05 10.08 2.19 10.65 2.37 11.18L0 9.68L2.04 7.46C1.94 8.11 1.91 8.79 1.98 9.48ZM10.74 14.18H13.19L11.55 17.45H13.19L10.12 23.18L10.74 19.09H8.69" fill="#FFFFFF"/>
</svg>
