<svg width="26" height="29" viewBox="0 0 26 29" fill="none" xmlns="http://www.w3.org/2000/svg">
<path d="M16.3704 0C14.4867 0.000281242 12.6442 0.553608 11.0698 1.59183C9.49548 2.63005 8.25804 4.10782 7.50991 5.84314C7.25454 5.81413 6.99774 5.79961 6.74074 5.79964C4.95299 5.79964 3.23845 6.51251 1.97432 7.78143C0.710183 9.05035 0 10.7714 0 12.5659C0 14.3604 0.710183 16.0814 1.97432 17.3504C3.23845 18.6193 4.95299 19.3321 6.74074 19.3321H10.3013L7.94444 22.8772C7.83917 23.0358 7.76606 23.2138 7.72929 23.4008C7.69252 23.5878 7.69281 23.7803 7.73014 23.9672C7.76747 24.1542 7.84111 24.3319 7.94687 24.4902C8.05262 24.6486 8.18841 24.7845 8.34648 24.8901C8.50455 24.9958 8.68181 25.0692 8.86814 25.1061C9.05447 25.143 9.24622 25.1427 9.43243 25.1052C9.61865 25.0678 9.79569 24.9939 9.95344 24.8877C10.1112 24.7815 10.2466 24.6452 10.3519 24.4866L13.7728 19.3321H16.3704C18.9243 19.3321 21.3736 18.3138 23.1795 16.501C24.9855 14.6883 26 12.2297 26 9.66607C26 7.10247 24.9855 4.64387 23.1795 2.83113C21.3736 1.01839 18.9243 0 16.3704 0ZM16.3704 16.4323H6.74074C5.71917 16.4323 4.73943 16.025 4.01707 15.2999C3.29471 14.5748 2.88889 13.5913 2.88889 12.5659C2.88889 11.5405 3.29471 10.557 4.01707 9.83191C4.73943 9.10682 5.71917 8.69946 6.74074 8.69946H6.77444C6.7612 8.83237 6.75037 8.96528 6.74315 9.09819C6.72096 9.48273 6.85186 9.86037 7.10706 10.148C7.36226 10.4357 7.72084 10.6098 8.10394 10.6321C8.48703 10.6543 8.86324 10.5229 9.14981 10.2668C9.43639 10.0106 9.60985 9.65068 9.63204 9.26614C9.70844 7.94549 10.1684 6.67621 10.9552 5.61496C11.742 4.55371 12.8212 3.74695 14.0595 3.29426C15.2978 2.84157 16.6411 2.76277 17.9235 3.06759C19.2059 3.3724 20.3714 4.04749 21.276 5.00951C22.1805 5.97154 22.7847 7.1784 23.0138 8.48112C23.243 9.78385 23.0871 11.1254 22.5654 12.3402C22.0437 13.555 21.179 14.5899 20.0781 15.3171C18.9772 16.0443 17.6883 16.432 16.3704 16.4323ZM16.4486 23.52L13.2383 28.353C13.1331 28.5117 12.9977 28.648 12.8399 28.7541C12.6822 28.8603 12.5051 28.9342 12.3189 28.9717C12.1327 29.0092 11.941 29.0094 11.7546 28.9725C11.5683 28.9356 11.391 28.8622 11.233 28.7566C11.0749 28.6509 10.9391 28.515 10.8333 28.3566C10.7276 28.1983 10.654 28.0206 10.6166 27.8337C10.5793 27.6467 10.579 27.4543 10.6158 27.2672C10.6525 27.0802 10.7257 26.9023 10.8309 26.7436L14.04 21.9106C14.1453 21.7519 14.2807 21.6156 14.4384 21.5094C14.5962 21.4033 14.7732 21.3294 14.9594 21.2919C15.1456 21.2544 15.3374 21.2541 15.5237 21.291C15.71 21.3279 15.8873 21.4013 16.0454 21.507C16.2034 21.6127 16.3392 21.7486 16.445 21.9069C16.5507 22.0653 16.6244 22.243 16.6617 22.4299C16.699 22.6168 16.6993 22.8093 16.6626 22.9963C16.6258 23.1834 16.5527 23.3613 16.4474 23.52H16.4486Z" fill="black"/>
</svg>

