<svg width="28" height="29" viewBox="0 0 28 29" fill="none" xmlns="http://www.w3.org/2000/svg">
<path d="M24 29H20C19.4701 28.9984 18.9623 28.7872 18.5875 28.4125C18.2128 28.0377 18.0016 27.5299 18 27V20C17.4701 19.9984 16.9623 19.7872 16.5875 19.4125C16.2128 19.0377 16.0016 18.5299 16 18V12C15.9927 11.604 16.0653 11.2106 16.2134 10.8433C16.3616 10.4761 16.5823 10.1424 16.8624 9.86236C17.1424 9.58231 17.4761 9.36161 17.8433 9.21344C18.2106 9.06527 18.604 8.99267 19 9H25C25.396 8.99267 25.7894 9.06527 26.1567 9.21344C26.524 9.36161 26.8576 9.58231 27.1376 9.86236C27.4177 10.1424 27.6384 10.4761 27.7866 10.8433C27.9347 11.2106 28.0073 11.604 28 12V18C27.9984 18.5299 27.7872 19.0377 27.4125 19.4125C27.0377 19.7872 26.53 19.9984 26 20V27C25.9984 27.5299 25.7872 28.0377 25.4125 28.4125C25.0377 28.7872 24.53 28.9984 24 29ZM19 11C18.8666 10.992 18.733 11.0124 18.608 11.0598C18.4831 11.1072 18.3696 11.1806 18.2751 11.2751C18.1806 11.3696 18.1072 11.4831 18.0598 11.608C18.0124 11.733 17.992 11.8666 18 12V18H20V27H24V18H26V12C26.008 11.8666 25.9877 11.733 25.9402 11.608C25.8928 11.4831 25.8194 11.3696 25.7249 11.2751C25.6304 11.1806 25.5169 11.1072 25.392 11.0598C25.267 11.0124 25.1334 10.992 25 11H19ZM22 8C21.2089 8 20.4355 7.76541 19.7777 7.32588C19.1199 6.88635 18.6072 6.26164 18.3045 5.53074C18.0017 4.79983 17.9225 3.99556 18.0769 3.21964C18.2312 2.44372 18.6122 1.73098 19.1716 1.17157C19.731 0.612165 20.4437 0.231202 21.2196 0.0768607C21.9956 -0.0774802 22.7998 0.00173312 23.5307 0.304484C24.2616 0.607234 24.8864 1.11992 25.3259 1.77772C25.7654 2.43552 26 3.20888 26 4C25.9968 5.05989 25.5744 6.07547 24.8249 6.82493C24.0755 7.57439 23.0599 7.99684 22 8ZM22 2C21.6044 2 21.2178 2.1173 20.8889 2.33706C20.56 2.55683 20.3036 2.86918 20.1522 3.23463C20.0009 3.60009 19.9613 4.00222 20.0384 4.39018C20.1156 4.77814 20.3061 5.13451 20.5858 5.41422C20.8655 5.69392 21.2219 5.8844 21.6098 5.96157C21.9978 6.03874 22.3999 5.99914 22.7654 5.84776C23.1308 5.69639 23.4432 5.44004 23.6629 5.11114C23.8827 4.78224 24 4.39556 24 4C23.9984 3.47006 23.7872 2.96227 23.4125 2.58754C23.0377 2.21281 22.53 2.00158 22 2ZM8.00001 19.184V11H6.00001V19.184C5.33279 19.4199 4.77045 19.8841 4.41237 20.4945C4.0543 21.1049 3.92354 21.8222 4.04321 22.5197C4.16288 23.2172 4.52528 23.85 5.06635 24.3061C5.60741 24.7622 6.29232 25.0124 7.00001 25.0124C7.70769 25.0124 8.3926 24.7622 8.93367 24.3061C9.47473 23.85 9.83713 23.2172 9.9568 22.5197C10.0765 21.8222 9.94571 21.1049 9.58764 20.4945C9.22956 19.8841 8.66722 19.4199 8.00001 19.184Z" fill="black"/>
<path d="M6.99998 29C5.62196 29.0016 4.27419 28.5959 3.12592 27.8341C1.97766 27.0722 1.08008 25.9881 0.545898 24.7178C0.0117187 23.4475 -0.135248 22.0477 0.123454 20.6942C0.382155 19.3407 1.03499 18.0937 1.99998 17.11V6C1.99998 4.67392 2.52677 3.40215 3.46445 2.46447C4.40213 1.52678 5.6739 1 6.99998 1C8.32607 1 9.59784 1.52678 10.5355 2.46447C11.4732 3.40215 12 4.67392 12 6V17.11C12.965 18.0937 13.6178 19.3407 13.8765 20.6942C14.1352 22.0477 13.9883 23.4475 13.4541 24.7178C12.9199 25.9881 12.0223 27.0722 10.874 27.8341C9.72578 28.5959 8.37801 29.0016 6.99998 29ZM6.99998 3C6.20458 3.00079 5.44198 3.31712 4.87954 3.87956C4.3171 4.44199 4.00078 5.20459 3.99998 6V17.983L3.66799 18.282C2.91286 18.9569 2.3805 19.8452 2.14137 20.8294C1.90223 21.8135 1.96759 22.8471 2.3288 23.7932C2.69002 24.7394 3.33005 25.5536 4.16418 26.128C4.99831 26.7024 5.98721 27.01 6.99998 27.01C8.01276 27.01 9.00166 26.7024 9.83579 26.128C10.6699 25.5536 11.31 24.7394 11.6712 23.7932C12.0324 22.8471 12.0977 21.8135 11.8586 20.8294C11.6195 19.8452 11.0871 18.9569 10.332 18.282L9.99998 17.983V6C9.99919 5.20459 9.68287 4.44199 9.12043 3.87956C8.55799 3.31712 7.79539 3.00079 6.99998 3Z" fill="black"/>
</svg>
