<svg width="56" height="56" viewBox="0 0 24 20" fill="none" xmlns="http://www.w3.org/2000/svg">
<path d="M1.21875 7.3125C0.895517 7.3125 0.585524 7.1841 0.356964 6.95554C0.128404 6.72698 0 6.41698 0 6.09375C0 5.77052 0.128404 5.46052 0.356964 5.23196C0.585524 5.0034 0.895517 4.875 1.21875 4.875H10.9688C11.292 4.875 11.602 4.7466 11.8305 4.51804C12.0591 4.28948 12.1875 3.97948 12.1875 3.65625C12.1875 3.33302 12.0591 3.02302 11.8305 2.79446C11.602 2.5659 11.292 2.4375 10.9688 2.4375C10.5763 2.44892 10.2032 2.61073 9.92672 2.88945C9.69551 3.10023 9.39209 3.21402 9.0793 3.20726C8.7665 3.20049 8.46829 3.07369 8.24641 2.85312C8.02452 2.63254 7.89597 2.33508 7.88736 2.02233C7.87875 1.70958 7.99074 1.4055 8.20016 1.17305C8.93507 0.436443 9.92835 0.0155931 10.9688 0C11.9384 0 12.8684 0.385211 13.5541 1.07089C14.2398 1.75657 14.625 2.68655 14.625 3.65625C14.625 4.62595 14.2398 5.55593 13.5541 6.24161C12.8684 6.92729 11.9384 7.3125 10.9688 7.3125H1.21875ZM19.9062 3.65625C18.8644 3.67079 17.8695 4.09172 17.1336 4.8293C16.9242 5.06175 16.8122 5.36583 16.8208 5.67858C16.8294 5.99133 16.958 6.28879 17.1798 6.50937C17.4017 6.72994 17.6999 6.85674 18.0127 6.86351C18.3255 6.87027 18.6289 6.75648 18.8602 6.5457C19.1377 6.26602 19.5124 6.10414 19.9062 6.09375C20.2295 6.09375 20.5395 6.22215 20.768 6.45071C20.9966 6.67927 21.125 6.98927 21.125 7.3125C21.125 7.63573 20.9966 7.94573 20.768 8.17429C20.5395 8.40285 20.2295 8.53125 19.9062 8.53125H2.03125C1.70802 8.53125 1.39802 8.65965 1.16946 8.88821C0.940904 9.11677 0.8125 9.42677 0.8125 9.75C0.8125 10.0732 0.940904 10.3832 1.16946 10.6118C1.39802 10.8403 1.70802 10.9688 2.03125 10.9688H19.9062C20.8759 10.9688 21.8059 10.5835 22.4916 9.89786C23.1773 9.21218 23.5625 8.2822 23.5625 7.3125C23.5625 6.3428 23.1773 5.41282 22.4916 4.72714C21.8059 4.04146 20.8759 3.65625 19.9062 3.65625ZM14.2188 12.1875H2.84375C2.52052 12.1875 2.21052 12.3159 1.98196 12.5445C1.7534 12.773 1.625 13.083 1.625 13.4062C1.625 13.7295 1.7534 14.0395 1.98196 14.268C2.21052 14.4966 2.52052 14.625 2.84375 14.625H14.2188C14.542 14.625 14.852 14.7534 15.0805 14.982C15.3091 15.2105 15.4375 15.5205 15.4375 15.8438C15.4375 16.167 15.3091 16.477 15.0805 16.7055C14.852 16.9341 14.542 17.0625 14.2188 17.0625C13.826 17.0509 13.4527 16.8892 13.1757 16.6105C13.0652 16.4879 12.9309 16.389 12.781 16.3198C12.6312 16.2506 12.4688 16.2125 12.3038 16.208C12.1387 16.2035 11.9745 16.2325 11.821 16.2933C11.6676 16.3542 11.5281 16.4456 11.411 16.562C11.2939 16.6784 11.2017 16.8173 11.1399 16.9704C11.0782 17.1235 11.0482 17.2876 11.0517 17.4526C11.0553 17.6177 11.0924 17.7803 11.1607 17.9306C11.229 18.0809 11.3271 18.2157 11.4491 18.327C12.1843 19.0638 13.178 19.4847 14.2188 19.5C15.1884 19.5 16.1184 19.1148 16.8041 18.4291C17.4898 17.7434 17.875 16.8134 17.875 15.8438C17.875 14.8741 17.4898 13.9441 16.8041 13.2584C16.1184 12.5727 15.1884 12.1875 14.2188 12.1875Z" fill="#303030"/>
</svg>
