<svg width="36" height="36" viewBox="0 0 18 25" fill="none" xmlns="http://www.w3.org/2000/svg">
<path d="M16.476 10.993L9.847 0.437006C9.75082 0.302015 9.62377 0.191968 9.47643 0.116037C9.3291 0.040105 9.16575 0.000488281 9 0.000488281C8.83425 0.000488281 8.6709 0.040105 8.52357 0.116037C8.37623 0.191968 8.24918 0.302015 8.153 0.437006L1.494 11.043C0.568885 12.5353 0.0535658 14.2451 0 16C0 18.387 0.948211 20.6761 2.63604 22.364C4.32387 24.0518 6.61305 25 9 25C11.3869 25 13.6761 24.0518 15.364 22.364C17.0518 20.6761 18 18.387 18 16C17.9425 14.2258 17.4167 12.4984 16.476 10.993ZM9 23C7.14422 22.9976 5.36512 22.2594 4.05288 20.9471C2.74064 19.6349 2.00238 17.8558 2 16C2.05315 14.6016 2.47321 13.2418 3.218 12.057L4.153 10.567L14.227 20.641C13.5727 21.3823 12.7683 21.976 11.8672 22.3829C10.9661 22.7898 9.98873 22.9995 9 23Z" fill="#FFFFFF"/>
</svg>
